<svg width="19" height="18" viewBox="0 0 19 18" xmlns="http://www.w3.org/2000/svg"><title>Logo/Small/Light</title><g fill="none" fill-rule="evenodd"><path d="M18.772 18h-8.236v-3.339h1.217c.519 0 .564-.118.564-.564V3.903c0-.43-.045-.55-.564-.55h-1.217V0h8.236v3.354h-1.217c-.52 0-.564.118-.564.549v10.194c0 .446.045.564.564.564h1.217V18zM8.236 18H0v-3.339h1.217c.52 0 .564-.118.564-.564V3.903c0-.43-.045-.55-.564-.55H0V0h8.236v3.354H7.019c-.52 0-.564.118-.564.549v10.194c0 .446.045.564.564.564h1.217V18z" fill="#FEFEFE"/></g></svg>