<svg width="179" height="52" viewBox="0 0 179 52" xmlns="http://www.w3.org/2000/svg"><title>Logo/Full/Dark</title><g fill="none" fill-rule="evenodd"><path d="M169.718 25.229c0-.15-.06-.18-.12-.18-.18 0-.42.45-1.111.45-.481 0-.961-.3-.961-1.081V13.814c0-3.244-2.253-6.098-7.21-6.098-5.377 0-7.81 2.854-7.81 5.197 0 1.892 1.412 3.334 3.244 3.334 1.863 0 3.305-1.472 3.305-3.274 0-1.171-.601-2.193-1.532-2.763 1.802-.21 4.055.63 4.055 3.004 0 1.441-.39 2.523-2.643 3.484l-2.944 1.261c-2.764 1.202-3.905 2.854-3.905 5.257v.3c0 2.824 1.742 5.228 5.166 5.228 2.403 0 3.966-1.562 4.386-2.884.27 1.712 1.712 2.884 3.845 2.884 2.673 0 4.235-1.773 4.235-3.515zM74.255 3.992h-3.904c0 2.763-.902 4.205-3.785 4.205h-.18v4.145h1.862v11.835c0 2.824 1.832 4.567 4.746 4.567 3.244 0 4.926-2.073 4.926-4.597 0-.15-.09-.18-.15-.18-.21 0-.691.751-1.832.751-1.142 0-1.683-.72-1.683-1.742V12.342h3.605c.541 0 .781.24.781.721v9.012c0 1.982.18 3.304.78 4.385.903 1.683 2.584 2.284 4.206 2.284 2.284 0 4.627-1.562 5.347-5.528v5.107h6.61v-4.146h-.722c-.601 0-.781-.18-.781-.72V8.197h-7.51v4.145h.781c.601 0 .722.24.722.721v8.11c0 1.382-.601 2.224-1.803 2.224-.961 0-1.622-.661-1.622-1.863V8.197H74.255V3.992zm28.778 8.35h3.124V8.197h-3.124V3.992h-3.905c0 2.763-.902 4.205-3.785 4.205h-.18v4.145h1.862v11.835c0 2.824 1.832 4.567 4.746 4.567 3.244 0 4.926-2.073 4.926-4.597 0-.15-.09-.18-.15-.18-.21 0-.69.751-1.832.751-1.142 0-1.682-.72-1.682-1.742V12.342zm-49.384 0h3.124V8.197H53.65V3.992h-3.905c0 2.763-.901 4.205-3.785 4.205h-.18v4.145h1.862v11.835c0 2.824 1.833 4.567 4.747 4.567 3.244 0 4.926-2.073 4.926-4.597 0-.15-.09-.18-.15-.18-.21 0-.691.751-1.833.751-1.141 0-1.682-.72-1.682-1.742V12.342zm26.945 34.785c0 2.823 1.832 4.566 4.746 4.566 3.244 0 4.926-2.073 4.926-4.596 0-.15-.09-.18-.15-.18-.21 0-.69.751-1.832.751-1.142 0-1.683-.721-1.683-1.742V35.292h3.125v-4.146H86.6v-2.162c0-.12-.06-.15-.12-.15-.09 0-.12.06-.33.33-.27.36-.751.901-1.652 1.322-.781.36-1.862.66-4.025.66H78.73v4.146h1.863v11.835zM0 5.313h1.322c.78 0 .84.18.84.842v17.182c0 .66-.06.84-.84.84H0v4.146h1.322c.78 0 .84.18.84.781v17.182c0 .6-.06.841-.84.841H0v4.145h11.235v-4.145H9.913c-.781 0-.841-.24-.841-.841V29.104c0-.6.06-.781.84-.781h1.323v-4.146H9.913c-.781 0-.841-.18-.841-.84V6.155c0-.662.06-.842.84-.842h1.323V1.168H0v4.145zm118.503 32.202a3.295 3.295 0 0 0 3.304-3.304 3.295 3.295 0 0 0-3.304-3.305 3.295 3.295 0 0 0-3.305 3.305 3.295 3.295 0 0 0 3.305 3.304zm-6.88-30.1a3.295 3.295 0 0 0 3.305-3.303 3.295 3.295 0 0 0-3.304-3.304 3.295 3.295 0 0 0-3.305 3.304 3.295 3.295 0 0 0 3.305 3.304zm3.065 16.042V8.197h-7.45v4.145h.78c.542 0 .662.24.662.721v10.394c0 .54-.12.72-.661.72h-.781v4.146h8.892v-4.146h-.782c-.54 0-.66-.18-.66-.72zm35.415 0v-9.253c0-2.102-.33-3.394-.991-4.475-.841-1.382-2.253-2.013-3.815-2.013-2.103 0-4.506 1.262-5.227 5.107V8.197h-6.909v4.145h.721c.6 0 .721.18.721.721v10.394c0 .48-.12.72-.72.72h-.722v4.146h9.072v-4.146h-.901c-.6 0-.721-.24-.721-.72v-8.05c0-1.442.601-2.464 1.862-2.464 1.021 0 1.623.721 1.623 1.983v13.397h7.509v-4.146h-.72c-.661 0-.782-.24-.782-.72zm-121.176 0v-9.253c0-2.102-.33-3.394-.99-4.475-.842-1.382-2.254-2.013-3.816-2.013-2.102 0-4.506 1.262-5.227 5.107V8.197h-6.909v4.145h.722c.6 0 .72.18.72.721v10.394c0 .48-.12.72-.72.72h-.722v4.146h9.072v-4.146h-.9c-.602 0-.722-.24-.722-.72v-8.05c0-1.442.6-2.464 1.862-2.464 1.022 0 1.622.721 1.622 1.983v13.397h7.51v-4.146h-.72c-.662 0-.782-.24-.782-.72zM62.24 7.416a3.294 3.294 0 0 0 3.304-3.304A3.295 3.295 0 0 0 62.24.808a3.295 3.295 0 0 0-3.304 3.304 3.294 3.294 0 0 0 3.304 3.304zm3.064 16.041V8.197h-7.45v4.145h.781c.541 0 .661.24.661.721v10.394c0 .54-.12.72-.66.72h-.781v4.146h8.89v-4.146h-.78c-.54 0-.66-.18-.66-.72zm33.133 23.61c-1.082 0-1.803-.781-1.803-2.824v-6.127c0-2.043.721-2.824 1.803-2.824 1.081 0 1.802.78 1.802 2.824v6.127c0 2.043-.72 2.824-1.802 2.824zm0-16.4c-2.644 0-5.287.9-6.669 3.183-.961 1.562-1.382 3.725-1.382 7.33 0 3.604.42 5.767 1.382 7.329 1.382 2.283 4.025 3.184 6.669 3.184 2.643 0 5.286-.901 6.668-3.184.961-1.562 1.382-3.725 1.382-7.33 0-3.604-.42-5.767-1.382-7.33-1.382-2.282-4.025-3.183-6.668-3.183zm26.193-6.55c-1.081 0-1.802-.78-1.802-2.823v-6.128c0-2.043.72-2.824 1.802-2.824s1.802.781 1.802 2.824v6.128c0 2.043-.72 2.823-1.802 2.823zm0-16.4c-2.643 0-5.287.9-6.668 3.183-.962 1.562-1.382 3.725-1.382 7.33 0 3.604.42 5.767 1.382 7.33 1.381 2.282 4.025 3.184 6.668 3.184 2.644 0 5.287-.902 6.669-3.185.96-1.562 1.382-3.725 1.382-7.33 0-3.604-.421-5.767-1.382-7.329-1.382-2.283-4.025-3.184-6.669-3.184zm-87.682 5.466c0-.84.6-1.381 1.501-1.381 1.142 0 1.743.84 1.743 2.283v.78h4.806V8.198h-3.905v3.845c-.24-2.343-1.682-4.326-4.626-4.326-2.884 0-5.708 2.163-5.708 6.008 0 3.064 1.893 4.896 3.695 5.798l3.274 1.652c1.202.6 1.983 1.141 1.983 2.042 0 .961-.66 1.502-1.622 1.502-1.141 0-1.983-.841-1.983-2.403v-.841H31.18v6.849h4.085v-3.785c.721 2.944 2.884 4.206 5.287 4.206 3.064 0 5.527-1.983 5.527-5.948 0-3.184-1.862-4.927-3.845-5.948l-3.664-1.862c-1.021-.541-1.622-1.021-1.622-1.803zM55.57 47.037c-1.501 0-1.982-.961-1.982-1.862V42.44h9.492v-2.884c0-2.583-.3-4.385-1.201-5.707-1.442-2.283-3.845-3.184-6.429-3.184-2.643 0-5.226.961-6.608 3.244-.961 1.562-1.502 3.725-1.502 7.39 0 3.514.42 5.617 1.382 7.179 1.442 2.343 3.785 3.244 6.728 3.244 3.785 0 7.39-1.592 7.39-6.278 0-.42-.06-.841-.12-1.382h-5.167v1.112c0 .901-.48 1.862-1.983 1.862zm105.947-23.76c0 .78-.54 1.561-1.622 1.561s-1.563-.78-1.563-1.561v-1.593c0-1.261.24-2.042 1.263-2.643l.84-.48c.48-.271.962-.662 1.082-1.082v5.798zM57.374 39.137h-3.785v-1.382c0-1.442.6-2.463 1.923-2.463 1.261 0 1.862.961 1.862 2.463v1.382zm-9.763-7.99h-7.69v4.145h1.022c.36 0 .54.18.42.66l-1.982 8.712h-.06l-2.043-8.711c-.12-.481.06-.661.48-.661h.902v-4.146h-9.252v4.146h.781c.36 0 .54.06.66.48l4.206 15.5h6.789l4.386-15.5c.12-.42.24-.48.66-.48h.721v-4.146zm66.866 15.259v-15.26h-7.45v4.146h.721c.601 0 .782.18.782.72v10.394c0 .48-.18.721-.782.721h-.78v4.145h9.672v-4.145h-1.442c-.54 0-.72-.24-.72-.721zM77.95 31.146h-3.905v3.845c-.24-2.342-1.682-4.325-4.625-4.325-2.884 0-5.708 2.163-5.708 6.008 0 3.064 1.893 4.896 3.695 5.797l3.274 1.652c1.201.6 1.983 1.142 1.983 2.043 0 .961-.661 1.502-1.622 1.502-1.142 0-1.983-.841-1.983-2.403v-.841h-4.927v6.848h4.086v-3.784c.72 2.943 2.884 4.205 5.286 4.205 3.065 0 5.528-1.982 5.528-5.948 0-3.184-1.863-4.926-3.845-5.947l-3.665-1.863c-1.021-.54-1.622-1.021-1.622-1.802 0-.841.6-1.382 1.502-1.382 1.141 0 1.742.841 1.742 2.283v.781h4.806v-6.669zm-49.023 15.26v-9.252c0-2.103-.33-3.394-.99-4.475-.842-1.382-2.254-2.013-3.816-2.013-2.102 0-4.506 1.261-5.227 5.106v-4.626h-6.909v4.146h.722c.6 0 .72.18.72.72v10.394c0 .48-.12.721-.72.721h-.722v4.145h9.072v-4.145h-.9c-.602 0-.722-.24-.722-.721v-8.05c0-1.442.6-2.463 1.862-2.463 1.022 0 1.622.72 1.622 1.982v13.397h7.51v-4.145h-.72c-.662 0-.782-.24-.782-.721zM178.22 24.177c-.6 0-.72-.18-.72-.72V1.167h-7.51v4.146h.78c.601 0 .721.18.721.721v17.423c0 .54-.12.72-.72.72h-.661v4.146H179v-4.146h-.78z" fill="#221F20"/></g></svg>